<svg width="243" height="69" viewBox="0 0 243 69" fill="none" xmlns="http://www.w3.org/2000/svg">
<path d="M112.904 25.5039H121.89L130.485 48.5538H130.68L139.275 25.5039H148.065L134.977 57.1487H126.187L112.904 25.5039Z" fill="#24374E"/>
<path d="M152.752 57.1468H160.956V25.3067H152.752V57.1468ZM151.58 14.3678C151.58 13.0004 152.166 12.0237 153.143 11.047C154.119 10.0703 155.291 9.67969 156.854 9.67969C158.417 9.67969 159.589 10.0703 160.566 11.047C161.542 12.0237 162.128 13.0004 162.128 14.3678C162.128 15.7351 161.542 16.9072 160.566 17.8838C159.589 18.8605 158.222 19.2512 156.854 19.2512C155.291 19.2512 154.119 18.8605 153.143 17.8838C152.166 16.9072 151.58 15.7351 151.58 14.3678Z" fill="#24374E"/>
<path d="M196.119 41.3258C196.119 39.9585 195.923 38.7865 195.533 37.6144C195.142 36.4424 194.556 35.2704 193.775 34.2937C192.993 33.317 192.017 32.5357 190.845 31.9497C189.673 31.3636 188.305 30.973 186.742 30.973C185.18 30.973 183.812 31.3636 182.64 31.9497C181.468 32.5357 180.492 33.317 179.71 34.489C178.929 35.4657 178.148 36.6378 177.757 38.0051C177.366 39.3725 177.171 40.5445 177.171 41.9119C177.171 43.2793 177.366 44.4513 177.757 45.6233C178.148 46.7953 178.734 47.9673 179.71 48.944C180.492 49.9207 181.468 50.7021 182.64 51.2881C183.812 51.8741 185.18 52.2648 186.742 52.2648C188.305 52.2648 189.673 51.8741 190.845 51.2881C192.017 50.7021 192.993 49.9207 193.775 48.7487C194.556 47.772 195.142 46.6 195.533 45.2326C195.923 43.8652 196.119 42.6932 196.119 41.3258ZM177.366 6.16504V29.2149H177.562C177.952 28.6289 178.538 28.0429 179.124 27.4569C179.71 26.8708 180.492 26.2848 181.468 25.8942C182.445 25.3082 183.422 24.9175 184.594 24.7221C185.766 24.3315 187.133 24.1361 188.696 24.1361C191.04 24.1361 193.189 24.5268 195.142 25.5035C197.095 26.4802 198.853 27.6522 200.221 29.2149C201.588 30.7776 202.76 32.5357 203.542 34.6844C204.323 36.8331 204.714 38.9818 204.714 41.5212C204.714 44.0606 204.323 46.2093 203.542 48.358C202.76 50.5067 201.783 52.2648 200.416 53.8275C199.049 55.3902 197.291 56.5622 195.337 57.5389C193.384 58.5156 191.04 58.9062 188.696 58.9062C186.352 58.9062 184.203 58.3203 182.25 57.3436C180.296 56.3669 178.734 54.8042 177.562 53.0461H177.366V57.9296H169.553V6.16504H177.366Z" fill="#24374E"/>
<path d="M234.794 38.0048C234.794 37.0281 234.599 35.856 234.404 34.8794C234.013 33.9027 233.622 33.1213 233.036 32.3399C232.45 31.5586 231.669 30.9726 230.692 30.5819C229.715 30.1912 228.543 29.9959 227.176 29.9959C224.637 29.9959 222.683 30.7772 220.925 32.3399C219.167 33.9026 218.191 35.856 217.995 38.2001H234.794V38.0048ZM242.998 41.7162V42.8882C242.998 43.2789 242.998 43.6695 242.998 44.0602H217.995C217.995 45.2322 218.386 46.4043 218.972 47.381C219.558 48.3577 220.144 49.139 221.121 49.9203C221.902 50.7017 222.879 51.2877 224.051 51.6784C225.223 52.0691 226.199 52.2644 227.567 52.2644C229.715 52.2644 231.278 51.8737 232.841 51.0924C234.208 50.311 235.38 49.3343 236.357 47.967L241.826 52.4598C238.506 56.9525 233.818 59.1012 227.762 59.1012C225.223 59.1012 222.879 58.7105 220.73 57.9292C218.581 57.1478 216.628 55.9758 215.065 54.4131C213.502 52.8504 212.33 51.0924 211.354 48.9436C210.377 46.7949 209.986 44.4509 209.986 41.7162C209.986 38.9815 210.377 36.6374 211.354 34.4887C212.33 32.3399 213.502 30.3866 215.065 28.8239C216.628 27.2612 218.386 26.0892 220.535 25.3078C222.683 24.5265 225.027 23.9404 227.371 23.9404C229.715 23.9404 231.864 24.3311 233.818 25.1125C235.771 25.8938 237.529 27.0658 238.896 28.4332C240.264 29.9959 241.436 31.754 242.217 34.098C242.608 36.0514 242.998 38.7861 242.998 41.7162Z" fill="#24374E"/>
<path d="M68.9551 62.1163L58.6022 68.1717L23.4414 7.22638L33.7943 1.1709L68.9551 62.1163Z" fill="#F7D900"/>
<path d="M0 50.3968C0 40.6299 7.81351 32.8164 17.5804 32.8164C27.3473 32.8164 35.1608 40.6299 35.1608 50.3968C35.1608 60.1637 27.3473 67.9772 17.5804 67.9772C7.81351 68.1726 0 60.1637 0 50.3968Z" fill="#0D3CFC"/>
<path d="M94.348 32.4261C94.348 14.455 79.893 0 61.9219 0V32.4261H94.348Z" fill="#FF7680"/>
</svg>
