<svg width="120" height="33" viewBox="0 0 120 33" fill="none" xmlns="http://www.w3.org/2000/svg">
<path fill-rule="evenodd" clip-rule="evenodd" d="M56.3701 12.2653H60.7618L64.9853 23.3748H65.0524L69.3095 12.2653H73.5675L67.1643 27.5011H62.8734L56.3701 12.2653Z" fill="#24374E"/>
<path fill-rule="evenodd" clip-rule="evenodd" d="M75.8577 27.501H79.8779V12.1587H75.8577V27.501ZM75.2852 6.94821C75.2852 6.33092 75.5251 5.79301 76.0054 5.33481C76.4856 4.87627 77.0944 4.64734 77.8318 4.64734C78.5687 4.64734 79.1883 4.86605 79.691 5.30244C80.1934 5.73986 80.4444 6.28834 80.4444 6.94821C80.4444 7.60979 80.1934 8.15827 79.691 8.59467C79.1883 9.03208 78.5687 9.25011 77.8318 9.25011C77.0944 9.25011 76.4856 9.02118 76.0054 8.56264C75.5251 8.10478 75.2852 7.56721 75.2852 6.94821Z" fill="#24374E"/>
<path fill-rule="evenodd" clip-rule="evenodd" d="M97.0235 19.9054C97.0235 19.2899 96.9289 18.6801 96.7406 18.0749C96.5524 17.4703 96.2698 16.9262 95.8929 16.4423C95.515 15.959 95.0386 15.5685 94.4621 15.2715C93.8853 14.9752 93.2092 14.8268 92.4332 14.8268C91.7011 14.8268 91.0474 14.9804 90.4709 15.2883C89.8941 15.5962 89.401 15.992 88.9904 16.4753C88.5799 16.9596 88.2701 17.509 88.0591 18.1244C87.8478 18.7402 87.7432 19.356 87.7432 19.9711C87.7432 20.5869 87.8478 21.1971 88.0591 21.8016C88.2701 22.4062 88.5799 22.9506 88.9904 23.4335C89.401 23.9179 89.8941 24.3077 90.4709 24.6043C91.0474 24.9017 91.7011 25.05 92.4332 25.05C93.2092 25.05 93.8853 24.8961 94.4621 24.5882C95.0386 24.2803 95.515 23.8845 95.8929 23.4009C96.2698 22.9172 96.5524 22.3675 96.7406 21.7517C96.9289 21.137 97.0235 20.5212 97.0235 19.9054ZM87.8773 2.95459V14.068H87.9773C88.1772 13.8044 88.4318 13.5296 88.7423 13.2438C89.0529 12.9581 89.4248 12.6941 89.8569 12.4523C90.2891 12.2101 90.7932 12.0066 91.3707 11.8421C91.9468 11.6769 92.6009 11.5947 93.333 11.5947C94.4636 11.5947 95.5058 11.8091 96.4595 12.2379C97.4132 12.6663 98.2332 13.2551 98.9209 14.002C99.608 14.7496 100.14 15.6293 100.518 16.6405C100.895 17.6521 101.083 18.7403 101.083 19.9054C101.083 21.0706 100.9 22.164 100.534 23.1865C100.168 24.2086 99.647 25.0989 98.9709 25.8581C98.2945 26.6162 97.4741 27.2211 96.5095 27.6717C95.5445 28.122 94.4526 28.3476 93.233 28.3476C92.1017 28.3476 91.0428 28.1055 90.0565 27.6218C89.0699 27.1389 88.2988 26.4345 87.7447 25.5115H87.6784V27.8858H83.8857V2.95459H87.8773Z" fill="#24374E"/>
<path fill-rule="evenodd" clip-rule="evenodd" d="M115.965 18.2839C115.965 17.7731 115.892 17.284 115.746 16.8173C115.601 16.351 115.371 15.9401 115.057 15.5845C114.743 15.229 114.345 14.9463 113.864 14.7346C113.382 14.5236 112.816 14.4181 112.166 14.4181C110.956 14.4181 109.931 14.7797 109.091 15.5014C108.25 16.2231 107.785 17.1509 107.695 18.2839H115.965ZM120 20.0827V20.6166C120 20.7945 119.988 20.9721 119.966 21.1493H107.696C107.741 21.7275 107.892 22.2553 108.15 22.7323C108.407 23.2108 108.749 23.6213 109.175 23.9655C109.6 24.3104 110.082 24.5817 110.621 24.782C111.158 24.9817 111.718 25.0822 112.301 25.0822C113.31 25.0822 114.161 24.8985 114.856 24.5324C115.551 24.1655 116.122 23.6604 116.57 23.0158L119.26 25.1486C117.668 27.2811 115.361 28.3476 112.335 28.3476C111.08 28.3476 109.926 28.153 108.872 27.7641C107.819 27.3762 106.906 26.8264 106.133 26.115C105.36 25.4043 104.755 24.5324 104.318 23.4992C103.881 22.466 103.662 21.2946 103.662 19.9833C103.662 18.6951 103.881 17.5226 104.318 16.4674C104.755 15.4125 105.354 14.5129 106.116 13.7681C106.878 13.024 107.78 12.4465 108.822 12.0352C109.864 11.6246 110.99 11.4189 112.2 11.4189C113.321 11.4189 114.357 11.6022 115.31 11.9691C116.262 12.3353 117.086 12.8801 117.78 13.6011C118.475 14.3239 119.019 15.2239 119.411 16.3012C119.803 17.3784 120 18.6393 120 20.0827Z" fill="#24374E"/>
<path fill-rule="evenodd" clip-rule="evenodd" d="M33.7448 29.9072L28.6338 32.812L11.4209 3.46406L16.5319 0.559326L33.7448 29.9072Z" fill="#F7D900"/>
<path fill-rule="evenodd" clip-rule="evenodd" d="M0 24.3014C0 19.6223 3.85321 15.8293 8.60657 15.8293C13.3597 15.8293 17.2129 19.6223 17.2129 24.3014C17.2129 28.9805 13.3597 32.7735 8.60657 32.7735C3.85321 32.7735 0 28.9805 0 24.3014Z" fill="#0D3CFC"/>
<path fill-rule="evenodd" clip-rule="evenodd" d="M46.1405 15.6006C46.1405 6.98475 39.0448 0 30.292 0V15.6006H46.1405Z" fill="#FF7680"/>
</svg>
