<svg width="110" height="33" viewBox="0 0 110 33" fill="none" xmlns="http://www.w3.org/2000/svg">
<path d="M65.442 6.56833C67.2491 6.56833 68.7141 5.10337 68.7141 3.29625C68.7141 1.48913 67.2491 0.0241699 65.442 0.0241699C63.6349 0.0241699 62.1699 1.48913 62.1699 3.29625C62.1699 5.10337 63.6349 6.56833 65.442 6.56833Z" fill="#111111"/>
<path d="M19.6325 3.2965C19.6325 1.49685 21.1049 0.0244141 22.9046 0.0244141H3.27208C1.47244 0.0244141 0 1.49685 0 3.2965C0 5.09614 1.47244 6.56858 3.27208 6.56858H22.9046C21.1049 6.56858 19.6325 5.09614 19.6325 3.2965Z" fill="#66CCCC"/>
<path d="M20.8326 27.1641L11.0163 10.1675C11.9252 11.7308 11.3799 13.7304 9.81657 14.6393C8.25324 15.5482 6.25364 15.0029 5.34473 13.4396L15.161 30.4362C16.0699 31.9995 18.0695 32.5449 19.6328 31.636C21.1961 30.7271 21.7415 28.7275 20.8326 27.1641Z" fill="#6666CC"/>
<path d="M34.3564 0.460421C32.7931 -0.448491 30.7935 0.0968561 29.8846 1.66018L20.0684 18.6568C20.9773 17.0935 22.9769 16.5482 24.5402 17.4571C26.1035 18.366 26.6489 20.3656 25.74 21.9289L35.5562 4.93227C36.4651 3.36894 35.9198 1.36933 34.3564 0.460421Z" fill="#FF6666"/>
<path d="M22.9049 6.56833C24.712 6.56833 26.177 5.10337 26.177 3.29625C26.177 1.48913 24.712 0.0241699 22.9049 0.0241699C21.0978 0.0241699 19.6328 1.48913 19.6328 3.29625C19.6328 5.10337 21.0978 6.56833 22.9049 6.56833Z" fill="#FFCC00"/>
<path d="M8.70401 15.0338C10.488 14.7452 11.7003 13.065 11.4117 11.281C11.1231 9.49705 9.4429 8.2848 7.65891 8.5734C5.87492 8.86199 4.66267 10.5422 4.95126 12.3261C5.23986 14.1101 6.92002 15.3224 8.70401 15.0338Z" fill="#FFCC00"/>
<path d="M21.2681 23.1286C19.7048 22.2197 19.1594 20.2201 20.0683 18.6568C20.9772 17.0934 22.9768 16.5481 24.5402 17.457C26.1035 18.3659 26.6489 20.3655 25.7399 21.9288C24.831 23.4922 22.8314 24.0375 21.2681 23.1286Z" fill="#FFCC00"/>
<path d="M53.3715 29.4546H47.809L41.083 9.604H45.2095L50.6084 26.2734L56.0073 9.604H60.1338L53.3715 29.4546Z" fill="#111111"/>
<path d="M67.4228 9.604H63.46V29.4546H67.4228V9.604Z" fill="#111111"/>
<path d="M87.8736 29.4546H71.9131V24.9283L83.2199 13.0942H72.113V9.604H87.0737V14.1304L75.7669 25.9644H87.8736V29.4546Z" fill="#111111"/>
<path d="M109.923 20.8746H94.3628C94.8354 24.3285 97.0532 26.3463 100.398 26.3463C102.816 26.3463 104.397 25.2738 105.197 23.4923H109.487C108.251 27.5824 104.797 29.8365 100.234 29.8365C94.5991 29.8365 90.4727 25.5828 90.4727 19.5113C90.4727 13.4397 94.5991 9.18604 100.234 9.18604C105.87 9.18604 109.996 13.4397 109.996 19.5113C110.014 20.0021 109.96 20.4384 109.923 20.8746ZM94.4173 18.0207H106.088C105.615 14.694 103.434 12.6944 100.253 12.6944C97.035 12.6944 94.89 14.694 94.4173 18.0207Z" fill="#111111"/>
</svg>
